<?xml version="1.0" standalone="no"?>
<!DOCTYPE svg PUBLIC "-//W3C//DTD SVG 20010904//EN"
 "http://www.w3.org/TR/2001/REC-SVG-20010904/DTD/svg10.dtd">
<svg version="1.0" xmlns="http://www.w3.org/2000/svg"
 width="512.000000pt" height="512.000000pt" viewBox="0 0 512.000000 512.000000"
 preserveAspectRatio="xMidYMid meet">
<metadata>
Created by potrace 1.14, written by Peter Selinger 2001-2017
</metadata>
<g transform="translate(0.000000,512.000000) scale(0.100000,-0.100000)"
fill="#000000" stroke="none">
<path d="M762 4075 c-87 -27 -156 -95 -188 -182 -11 -31 -13 -219 -14 -1019 0
-1117 -6 -1039 84 -1130 87 -87 66 -84 708 -84 l558 0 0 -175 0 -175 -97 0
c-82 0 -106 -4 -149 -24 -58 -27 -120 -94 -134 -145 -13 -46 -13 -297 0 -321
5 -10 24 -23 41 -29 43 -15 1426 -16 1465 -1 49 19 53 34 53 185 1 154 -11
200 -67 258 -52 56 -96 71 -219 75 l-113 4 0 174 0 174 568 0 569 0 61 31 c65
32 99 66 135 133 19 37 22 59 25 207 l4 167 39 6 c69 11 79 30 79 152 l0 105
36 15 36 15 78 -75 c106 -104 106 -104 242 32 136 136 136 136 33 242 l-75 77
15 36 15 37 105 0 c153 0 159 7 153 220 -4 170 -4 170 -154 170 l-104 0 -15
37 -15 36 75 77 c103 106 103 106 -33 242 -136 136 -136 136 -242 33 l-77 -75
-36 15 -37 15 0 104 c0 126 -10 145 -83 153 -43 5 -47 8 -58 42 -7 19 -38 61
-69 92 -96 97 50 89 -1659 88 -1227 0 -1504 -3 -1539 -14z m3067 -160 c44 -26
49 -43 17 -51 -52 -13 -66 -46 -66 -158 l0 -102 -36 -13 -36 -13 -78 76 c-43
42 -85 76 -94 76 -33 0 -72 -29 -158 -118 -79 -80 -88 -93 -88 -127 0 -33 9
-46 71 -110 l71 -74 -12 -35 -12 -36 -102 0 c-89 0 -107 -3 -130 -21 l-26 -20
0 -150 c0 -146 1 -151 25 -174 22 -23 31 -25 129 -25 l104 0 12 -36 12 -35
-71 -74 c-103 -105 -102 -111 39 -249 131 -130 130 -129 236 -24 l72 70 36
-13 36 -13 0 -102 c0 -87 3 -105 21 -128 15 -19 30 -26 55 -26 32 0 34 -2 34
-35 l0 -35 -1590 0 -1590 0 0 840 c0 897 -1 880 48 924 12 10 36 22 54 27 18
4 697 7 1508 6 1457 -2 1475 -2 1509 -22z m288 -747 c17 -18 37 -46 42 -61 16
-41 13 -114 -5 -153 -16 -34 -76 -94 -94 -94 -6 0 -10 71 -10 180 0 202 -1
200 67 128z m-227 -133 c0 -164 -1 -175 -17 -166 -76 41 -113 154 -77 239 15
36 70 102 86 102 4 0 8 -79 8 -175z m-382 -1137 l-3 -83 -1305 -2 c-718 -2
-1329 0 -1358 3 -43 4 -59 12 -87 40 -30 29 -35 42 -35 79 l0 45 1395 0 1396
0 -3 -82z m-1155 -748 l267 0 0 -105 0 -105 -476 0 -476 0 3 79 c4 67 8 83 28
105 31 33 48 35 231 30 85 -2 275 -4 423 -4z"/>
<path d="M1834 3370 c-11 -4 -87 -79 -170 -165 -116 -122 -150 -164 -152 -188
-3 -27 12 -45 160 -194 174 -175 194 -187 238 -143 41 41 29 63 -112 206
l-132 134 132 133 c142 144 150 160 107 202 -25 26 -37 29 -71 15z"/>
<path d="M2447 3358 c-26 -24 -277 -610 -277 -647 0 -26 26 -51 53 -51 28 0
41 9 56 37 19 37 261 616 261 625 0 12 -47 58 -59 58 -5 0 -21 -10 -34 -22z"/>
<path d="M2647 3360 c-50 -40 -40 -60 104 -206 l132 -133 -132 -137 c-138
-144 -150 -165 -111 -204 44 -44 64 -31 238 143 137 137 162 167 162 192 0 25
-26 56 -158 192 -96 100 -167 165 -182 169 -18 3 -35 -2 -53 -16z"/>
</g>
</svg>
